<?xml version="1.0" encoding="iso-8859-1"?>
<!-- Generator: Adobe Illustrator 17.0.0, SVG Export Plug-In . SVG Version: 6.00 Build 0)  -->
<!DOCTYPE svg PUBLIC "-//W3C//DTD SVG 1.1//EN" "http://www.w3.org/Graphics/SVG/1.1/DTD/svg11.dtd">
<svg version="1.1" id="Layer_1" xmlns="http://www.w3.org/2000/svg" xmlns:xlink="http://www.w3.org/1999/xlink" x="0px" y="0px"
	 width="252px" height="144px" viewBox="0 0 252 144" style="enable-background:new 0 0 252 144;" xml:space="preserve">
<g>
	<path style="fill:#4E4E4E;" d="M171.365,133.58c0,4.182-3.422,7.603-7.603,7.603H49.65c-4.182,0-7.603-3.422-7.603-7.603V19.467
		c0-4.182,3.422-7.603,7.603-7.603h114.112c4.182,0,7.603,3.422,7.603,7.603V133.58z"/>
	<path id="Facebook_2_" style="fill:#3B3B3C;" d="M99.133,57.874c0,1.769,0,9.665,0,9.665h-7.081v11.82h7.081v32.433h14.546V79.358
		h9.76c0,0,0.915-5.667,1.357-11.864c-1.27,0-11.061,0-11.061,0s0-6.876,0-8.08c0-1.207,1.585-2.833,3.153-2.833
		c1.564,0,4.867,0,7.925,0c0-1.61,0-7.169,0-12.304c-4.083,0-8.728,0-10.775,0C98.773,44.276,99.133,56.107,99.133,57.874z"/>
	<path id="Facebook_1_" style="fill:#FFFFFF;" d="M97.407,56.364c0,1.769,0,9.665,0,9.665h-7.082v11.82h7.082v32.433h14.546V77.848
		h9.76c0,0,0.914-5.667,1.357-11.864c-1.271,0-11.062,0-11.062,0s0-6.876,0-8.08c0-1.207,1.586-2.833,3.153-2.833
		c1.564,0,4.867,0,7.925,0c0-1.61,0-7.169,0-12.305c-4.083,0-8.728,0-10.775,0C97.047,42.766,97.407,54.597,97.407,56.364z"/>
</g>
</svg>
